<svg xmlns="http://www.w3.org/2000/svg" viewBox="0 0 960 700" width="960" height="700">
  <defs>
    <marker id="arrowA" markerWidth="10" markerHeight="7" refX="9" refY="3.5" orient="auto">
      <polygon points="0 0, 10 3.5, 0 7" fill="#67e8f9"/>
    </marker>
    <marker id="arrowB" markerWidth="10" markerHeight="7" refX="9" refY="3.5" orient="auto">
      <polygon points="0 0, 10 3.5, 0 7" fill="#22d3ee"/>
    </marker>
    <marker id="arrowC" markerWidth="10" markerHeight="7" refX="9" refY="3.5" orient="auto">
      <polygon points="0 0, 10 3.5, 0 7" fill="#38bdf8"/>
    </marker>
    <marker id="arrowE" markerWidth="10" markerHeight="7" refX="9" refY="3.5" orient="auto">
      <polygon points="0 0, 10 3.5, 0 7" fill="#fde047"/>
    </marker>
    <marker id="arrowF" markerWidth="10" markerHeight="7" refX="9" refY="3.5" orient="auto">
      <polygon points="0 0, 10 3.5, 0 7" fill="#c084fc"/>
    </marker>
    <marker id="arrowG" markerWidth="10" markerHeight="7" refX="9" refY="3.5" orient="auto">
      <polygon points="0 0, 10 3.5, 0 7" fill="#fb7185"/>
    </marker>
    <marker id="arrowH" markerWidth="10" markerHeight="7" refX="9" refY="3.5" orient="auto">
      <polygon points="0 0, 10 3.5, 0 7" fill="#bae6fd"/>
    </marker>
    <pattern id="blueprintGrid" width="32" height="32" patternUnits="userSpaceOnUse">
      <path d="M 32 0 L 0 0 0 32" fill="none" stroke="#0ea5e9" stroke-opacity="0.12" stroke-width="1"/>
    </pattern>
    <style>
    text { font-family: 'SF Mono', 'Fira Code', Menlo, 'Microsoft YaHei', 'SimHei', monospace; }
    .title { font-size: 30px; font-weight: 700; fill: #e0f2fe; }
    .subtitle { font-size: 14px; font-weight: 500; fill: #7dd3fc; }
    .section { font-size: 13px; font-weight: 700; fill: #67e8f9; letter-spacing: 1.4px; }
    .section-sub { font-size: 12px; font-weight: 500; fill: #7dd3fc; }
    .node-title { font-size: 18px; font-weight: 700; fill: #e0f2fe; }
    .node-sub { font-size: 12px; font-weight: 500; fill: #bae6fd; }
    .node-type { font-size: 11px; font-weight: 700; fill: #7dd3fc; letter-spacing: 0.08em; }
    .arrow-label { font-size: 12px; font-weight: 600; fill: #e0f2fe; }
    .legend { font-size: 12px; font-weight: 500; fill: #bae6fd; }
    .footnote { font-size: 12px; font-weight: 500; fill: #7dd3fc; }
    </style>
  </defs>
  <rect width="960.0" height="700.0" fill="#082f49"/>
  <text x="480.0" y="56" text-anchor="middle" class="title">网站部署流程</text>
  <text x="480.0" y="82" text-anchor="middle" class="subtitle">从代码到线上 — 一个请求的完整旅程</text>
  <rect x="20.0" y="20.0" width="920.0" height="70.0" rx="16.0" fill="#082f49" stroke="#3b82f6" stroke-width="1.4" stroke-dasharray="6 4"/>
  <text x="38.0" y="44.0" class="section">开发阶段</text>
  <rect x="20.0" y="110.0" width="920.0" height="70.0" rx="16.0" fill="#082f49" stroke="#10b981" stroke-width="1.4" stroke-dasharray="6 4"/>
  <text x="38.0" y="134.0" class="section">部署阶段</text>
  <rect x="20.0" y="200.0" width="920.0" height="70.0" rx="16.0" fill="#082f49" stroke="#f59e0b" stroke-width="1.4" stroke-dasharray="6 4"/>
  <text x="38.0" y="224.0" class="section">运行阶段</text>
  <path d="M 240.0,60.0 L 280.0,60.0" fill="none" stroke="#67e8f9" stroke-width="2.1" marker-end="url(#arrowA)"/>
  <path d="M 480.0,60.0 L 520.0,60.0" fill="none" stroke="#67e8f9" stroke-width="2.1" marker-end="url(#arrowA)"/>
  <path d="M 520.0,60.0 L 240.0,150.0" fill="none" stroke="#fde047" stroke-width="2.1" marker-end="url(#arrowE)"/>
  <path d="M 240.0,150.0 L 280.0,150.0" fill="none" stroke="#22d3ee" stroke-width="2.1" marker-end="url(#arrowB)"/>
  <path d="M 480.0,150.0 L 520.0,150.0" fill="none" stroke="#67e8f9" stroke-width="2.1" marker-end="url(#arrowA)"/>
  <path d="M 520.0,150.0 L 240.0,240.0" fill="none" stroke="#67e8f9" stroke-width="2.1" marker-end="url(#arrowA)"/>
  <path d="M 240.0,240.0 L 280.0,240.0" fill="none" stroke="#fde047" stroke-width="2.1" marker-end="url(#arrowE)"/>
  <path d="M 480.0,240.0 L 520.0,240.0" fill="none" stroke="#38bdf8" stroke-width="2.1" marker-end="url(#arrowC)"/>
  <path d="M 40.0 40.0 L 231.2 40.0 L 240.0 48.8 L 240.0 80.0 L 40.0 80.0 Z" fill="#1e3a5f" stroke="#3b82f6" stroke-width="2.0"/>
  <path d="M 231.2 40.0 L 231.2 48.8 L 240.0 48.8" fill="none" stroke="#3b82f6" stroke-width="2.0"/>
  <line x1="58.0" y1="66.0" x2="212.0" y2="66.0" stroke="#c4b5fd" stroke-width="1.2"/>
  <line x1="58.0" y1="80.0" x2="212.0" y2="80.0" stroke="#c4b5fd" stroke-width="1.2"/>
  <line x1="58.0" y1="94.0" x2="212.0" y2="94.0" stroke="#c4b5fd" stroke-width="1.2"/>
  <line x1="58.0" y1="108.0" x2="212.0" y2="108.0" stroke="#c4b5fd" stroke-width="1.2"/>
  <text x="140.0" y="106.0" text-anchor="middle" class="node-title">编写代码</text>
  <rect x="280.0" y="40.0" width="200.0" height="40.0" rx="8.0" fill="#1e3a5f" stroke="#3b82f6" stroke-width="1.8"/>
  <text x="380.0" y="60.0" text-anchor="middle" class="node-title">Git 版本控制</text>
  <rect x="520.0" y="40.0" width="200.0" height="40.0" rx="8.0" fill="#1e3a5f" stroke="#3b82f6" stroke-width="1.8"/>
  <text x="620.0" y="60.0" text-anchor="middle" class="node-title">构建/编译</text>
  <rect x="40.0" y="130.0" width="200.0" height="40.0" rx="8.0" fill="#064e3b" stroke="#10b981" stroke-width="1.8"/>
  <text x="140.0" y="150.0" text-anchor="middle" class="node-title">Docker 打包</text>
  <rect x="280.0" y="130.0" width="200.0" height="40.0" rx="8.0" fill="#064e3b" stroke="#10b981" stroke-width="1.8"/>
  <text x="380.0" y="150.0" text-anchor="middle" class="node-title">上传服务器</text>
  <rect x="520.0" y="130.0" width="200.0" height="40.0" rx="8.0" fill="#064e3b" stroke="#10b981" stroke-width="1.8"/>
  <text x="620.0" y="150.0" text-anchor="middle" class="node-title">Nginx 配置</text>
  <rect x="40.0" y="220.0" width="200.0" height="40.0" rx="8.0" fill="#78350f" stroke="#f59e0b" stroke-width="1.8"/>
  <text x="140.0" y="240.0" text-anchor="middle" class="node-title">SSL 证书配置</text>
  <rect x="280.0" y="220.0" width="200.0" height="40.0" rx="8.0" fill="#78350f" stroke="#f59e0b" stroke-width="1.8"/>
  <text x="380.0" y="240.0" text-anchor="middle" class="node-title">DNS 域名解析</text>
  <rect x="520.0" y="220.0" width="200.0" height="40.0" rx="8.0" fill="#78350f" stroke="#f59e0b" stroke-width="1.8"/>
  <text x="620.0" y="240.0" text-anchor="middle" class="node-title">网站上线运行</text>
  <rect x="242.0" y="46.0" width="36" height="20" rx="6" fill="#082f49" opacity="0.9"/>
  <text x="260.0" y="60.0" text-anchor="middle" class="arrow-label">提交</text>
  <rect x="482.0" y="46.0" width="36" height="20" rx="6" fill="#082f49" opacity="0.9"/>
  <text x="500.0" y="60.0" text-anchor="middle" class="arrow-label">触发</text>
  <rect x="362.0" y="91.0" width="36" height="20" rx="6" fill="#082f49" opacity="0.9"/>
  <text x="380.0" y="105.0" text-anchor="middle" class="arrow-label">产物</text>
  <rect x="242.0" y="136.0" width="36" height="20" rx="6" fill="#082f49" opacity="0.9"/>
  <text x="260.0" y="150.0" text-anchor="middle" class="arrow-label">推送</text>
  <rect x="482.0" y="136.0" width="36" height="20" rx="6" fill="#082f49" opacity="0.9"/>
  <text x="500.0" y="150.0" text-anchor="middle" class="arrow-label">绑定</text>
  <rect x="362.0" y="181.0" width="36" height="20" rx="6" fill="#082f49" opacity="0.9"/>
  <text x="380.0" y="195.0" text-anchor="middle" class="arrow-label">加密</text>
  <rect x="242.0" y="226.0" width="36" height="20" rx="6" fill="#082f49" opacity="0.9"/>
  <text x="260.0" y="240.0" text-anchor="middle" class="arrow-label">DNS</text>
  <rect x="482.0" y="226.0" width="36" height="20" rx="6" fill="#082f49" opacity="0.9"/>
  <text x="500.0" y="240.0" text-anchor="middle" class="arrow-label">访问</text>
  <text x="42.0" y="684.0" class="footnote">AI 时代最神奇的地方：你描述需求，AI 帮你完成整个部署流程</text>
</svg>